<svg xmlns="http://www.w3.org/2000/svg" xmlns:xlink="http://www.w3.org/1999/xlink" width="24" height="24" viewBox="0 0 24 24"><defs><style>.a{fill:none;}.b{clip-path:url(#a);}.c{fill:#fff;}</style><clipPath id="a"><rect class="a" width="24" height="24"/></clipPath></defs><g class="b"><path class="c" d="M4377,1686a11.965,11.965,0,1,1,4.671-.943A11.929,11.929,0,0,1,4377,1686Zm-3.163-17.28h-.025a1.21,1.21,0,0,0-1.133,1.253v7.918a1.22,1.22,0,0,0,1.162,1.259,1.156,1.156,0,0,0,.58-.161l6.45-3.973a1.281,1.281,0,0,0,0-2.162l-6.45-3.972A1.188,1.188,0,0,0,4373.837,1668.72Z" transform="translate(-4365 -1662)"/></g></svg>