<svg xmlns="http://www.w3.org/2000/svg" xmlns:xlink="http://www.w3.org/1999/xlink" width="15.67" height="15.982" viewBox="0 0 15.67 15.982"><defs><style>.a{fill:none;}.b{clip-path:url(#a);}.c{fill:#fff;}</style><clipPath id="a"><rect class="a" width="15.67" height="15.982"/></clipPath></defs><g class="b" transform="translate(0)"><path class="c" d="M14.772,15.982h-.012a.789.789,0,0,1-.554-.241l-4.83-5a5.877,5.877,0,0,1-3.447,1.108H5.822A5.925,5.925,0,0,1,5.923,0h.105a5.926,5.926,0,0,1,4.591,9.542l4.83,5a.79.79,0,0,1-.019,1.117l-.107.1A.787.787,0,0,1,14.772,15.982ZM5.891,1.615A4.345,4.345,0,1,0,10.235,5.96,4.35,4.35,0,0,0,5.891,1.615Z"/></g></svg>