<svg xmlns="http://www.w3.org/2000/svg" xmlns:xlink="http://www.w3.org/1999/xlink" width="16.324" height="22.26" viewBox="0 0 16.324 22.26"><defs><style>.a,.c{fill:none;}.b{clip-path:url(#a);}.c{stroke-miterlimit:10;}.d,.e{stroke:none;}.e{fill:#ff2638;}</style><clipPath id="a"><rect class="a" width="16.324" height="22.259"/></clipPath></defs><g class="b" transform="translate(0 0)"><g class="c"><path class="d" d="M8.162,22.259h0c-.042-.056-4.213-5.667-5.935-8.115C.582,11.808,0,10.242,0,8.162a8.162,8.162,0,1,1,16.324,0c0,2.082-.582,3.647-2.226,5.982C12.375,16.591,8.2,22.2,8.162,22.258Zm0-16.308a2.21,2.21,0,1,0,2.21,2.21A2.213,2.213,0,0,0,8.162,5.952Z"/><path class="e" d="M 8.161754608154297 19.74016189575195 C 9.535550117492676 17.88225173950195 11.73861885070801 14.88953304290771 12.87112426757812 13.28009986877441 C 14.33084487915039 11.20631980895996 14.82350444793701 9.914770126342773 14.82350444793701 8.161759376525879 C 14.82350444793701 4.488449573516846 11.83505439758301 1.499999761581421 8.161754608154297 1.499999761581421 C 4.488454818725586 1.499999761581421 1.500004649162292 4.488449573516846 1.500004649162292 8.161759376525879 C 1.500004649162292 9.913809776306152 1.992704629898071 11.20541954040527 3.4525146484375 13.28028964996338 C 4.585039138793945 14.88974666595459 6.788215637207031 17.88260269165039 8.161754608154297 19.74016189575195 M 8.161754608154297 4.451499938964844 C 10.207594871521 4.451499938964844 11.87200450897217 6.115919589996338 11.87200450897217 8.161759376525879 C 11.87200450897217 10.20759963989258 10.207594871521 11.87201023101807 8.161754608154297 11.87201023101807 C 6.115914821624756 11.87201023101807 4.451504707336426 10.20759963989258 4.451504707336426 8.161759376525879 C 4.451504707336426 6.115919589996338 6.115914821624756 4.451499938964844 8.161754608154297 4.451499938964844 M 8.161754608154297 22.25947952270508 L 8.161025047302246 22.25849914550781 C 8.119094848632812 22.20211029052734 3.948264598846436 16.59136009216309 2.225784540176392 14.14349937438965 C 0.5824546217918396 11.80777931213379 4.608154085872229e-06 10.24246978759766 4.608154085872229e-06 8.161759376525879 C 4.608154085872229e-06 3.661349773406982 3.661354541778564 -2.386474591276055e-07 8.161754608154297 -2.386474591276055e-07 C 12.66215419769287 -2.386474591276055e-07 16.32350540161133 3.661349773406982 16.32350540161133 8.161759376525879 C 16.32350540161133 10.24355983734131 15.74105453491211 11.80886936187744 14.09772491455078 14.14349937438965 C 12.375244140625 16.59136009216309 8.204414367675781 22.20211029052734 8.162484169006348 22.25849914550781 L 8.161754608154297 22.25947952270508 Z M 8.161754608154297 5.951499938964844 C 6.943014621734619 5.951499938964844 5.951504707336426 6.943019866943359 5.951504707336426 8.161759376525879 C 5.951504707336426 9.380489349365234 6.943014621734619 10.37201023101807 8.161754608154297 10.37201023101807 C 9.380495071411133 10.37201023101807 10.37200450897217 9.380489349365234 10.37200450897217 8.161759376525879 C 10.37200450897217 6.943019866943359 9.380495071411133 5.951499938964844 8.161754608154297 5.951499938964844 Z"/></g></g></svg>