<svg xmlns="http://www.w3.org/2000/svg" xmlns:xlink="http://www.w3.org/1999/xlink" width="28.617" height="40.084" viewBox="0 0 28.617 40.084"><defs><style>.a{fill:none;}.b{clip-path:url(#a);}.c{fill:#111212;}</style><clipPath id="a"><rect class="a" width="28.617" height="40.084"/></clipPath></defs><g class="b" transform="translate(0)"><path class="c" d="M86.988,61.438v-2.9a1.193,1.193,0,0,0-1.193-1.193H80.317a1.193,1.193,0,0,0-1.193,1.193v2.9a6.355,6.355,0,0,0-5.269,6.253v21.59a3.579,3.579,0,0,0,3.575,3.575H88.682a3.579,3.579,0,0,0,3.575-3.575V67.691A6.355,6.355,0,0,0,86.988,61.438Zm-5.478-1.7H84.6v1.609H81.51Zm-1.309,4h5.71A3.968,3.968,0,0,1,89.688,66.5H76.425A3.968,3.968,0,0,1,80.2,63.73Zm9.67,25.55a1.191,1.191,0,0,1-1.189,1.189H77.43a1.191,1.191,0,0,1-1.189-1.189v-20.4h1.551V76.2a1.193,1.193,0,0,0,2.386,0V68.884h1.558v3.629a1.193,1.193,0,1,0,2.386,0V68.884h5.749Z" transform="translate(-73.855 -52.772)"/><path class="c" d="M303.365,6.77,309.1,1.039a1.193,1.193,0,1,0-1.687-1.687l-6.575,6.574a1.193,1.193,0,0,0,0,1.687l6.575,6.574A1.193,1.193,0,0,0,309.1,12.5Z" transform="translate(-282.708 0.998)"/><path class="c" d="M371.585,84.011a1.193,1.193,0,1,0,1.193-1.193A1.214,1.214,0,0,0,371.585,84.011Z" transform="translate(-348.23 -76.243)"/><path class="c" d="M408.236,47.193A1.193,1.193,0,1,0,409.429,46,1.214,1.214,0,0,0,408.236,47.193Z" transform="translate(-382.006 -42.313)"/><path class="c" d="M409.429,119.633a1.193,1.193,0,1,0,1.193,1.193A1.206,1.206,0,0,0,409.429,119.633Z" transform="translate(-382.006 -110.17)"/></g></svg>