<svg xmlns="http://www.w3.org/2000/svg" width="15.775" height="7.887" viewBox="0 0 15.775 7.887"><defs><style>.a{fill:#ff2638;}</style></defs><g transform="translate(16.005) rotate(90)"><g transform="translate(0 16.005) rotate(-90)"><g transform="translate(0 0)"><path class="a" d="M.231.262h0a.713.713,0,0,0,0,1.05l6.518,6.14a1.645,1.645,0,0,0,2.23,0l6.566-6.184A.713.713,0,0,0,15.552.225.824.824,0,0,0,14.429.217L8.421,5.877a.823.823,0,0,1-1.115,0L1.345.262a.822.822,0,0,0-1.115,0" transform="translate(0)"/></g></g></g></svg>